<?xml version="1.0" encoding="UTF-8" standalone="no"?>
<svg xmlns="http://www.w3.org/2000/svg" width="96px" height="96px" baseProfile="tiny" version="1.1" xmlns:xlink="http://www.w3.org/1999/xlink" viewBox="0 0 96 96">
 <rect id="BOUNDING_BOX_1_" width="96" height="96" fill="none"/>
 <path id="SHADOW_1_" opacity="0.4" d="M88.023,49c0,29.633-10.364,40-40,40-29.635,0-40-10.367-40-40,0-29.634,10.366-40,40-40,29.636,0,40,10.365,40,40z"/>
 <path id="GREY_5_1_" fill="#CECECE" d="M8,47.978c0,29.633,10.365,40,40,40,29.637,0,40-10.367,40-40,0-28.985-9.926-39.53-38.091-39.978h-3.818c-28.163,0.448-38.091,10.993-38.091,39.978z" display="none"/>
 <path id="GREY_4_1_" fill="#D3D3D3" d="M8,47.978c0,29.633,10.365,40,40,40,29.637,0,40-10.367,40-40,0-28.985-9.926-39.53-38.091-39.978h-3.818c-28.163,0.448-38.091,10.993-38.091,39.978z" display="none"/>
 <path id="GREY_3_1_" fill="#E0E0E0" d="M8,47.978c0,29.633,10.365,40,40,40,29.637,0,40-10.367,40-40,0-28.985-9.926-39.53-38.091-39.978h-3.818c-28.163,0.448-38.091,10.993-38.091,39.978z" display="none"/>
 <path id="GREY_2_1_" fill="#E8E8E8" d="M8,47.978c0,29.633,10.365,40,40,40,29.637,0,40-10.367,40-40,0-28.985-9.926-39.53-38.091-39.978h-3.818c-28.163,0.448-38.091,10.993-38.091,39.978z" display="none"/>
 <linearGradient id="GREY_1_2_" y2="87.642" gradientUnits="userSpaceOnUse" y1="7.6631" x2="48" x1="48">
  <stop stop-color="#FFF" offset="0"/>
  <stop stop-color="#CCCAC6" offset="1"/>
 </linearGradient>
 <path id="GREY_1_1_" fill="url(#GREY_1_2_)" d="M8,47.978c0,29.633,10.365,40,40,40,29.637,0,40-10.367,40-40,0-28.985-9.926-39.53-38.091-39.978h-3.818c-28.163,0.448-38.091,10.993-38.091,39.978z" display="none"/>
 <path id="GREEN_4_5_" fill="#ED9507" d="M8,47.978c0,29.633,10.365,40,40,40,29.637,0,40-10.367,40-40,0-28.985-9.926-39.53-38.091-39.978h-3.818c-28.163,0.448-38.091,10.993-38.091,39.978z" display="none"/>
 <path id="GREEN_4_4_" fill="#FF8500" d="M8,47.978c0,29.633,10.365,40,40,40,29.637,0,40-10.367,40-40,0-28.985-9.926-39.53-38.091-39.978h-3.818c-28.163,0.448-38.091,10.993-38.091,39.978z" display="none"/>
 <path id="GREEN_3_3_" fill="#F77219" d="M8,47.978c0,29.633,10.365,40,40,40,29.637,0,40-10.367,40-40,0-28.985-9.926-39.53-38.091-39.978h-3.818c-28.163,0.448-38.091,10.993-38.091,39.978z" display="none"/>
 <path id="GREEN_2_3_" fill="#EA650A" d="M8,47.978c0,29.633,10.365,40,40,40,29.637,0,40-10.367,40-40,0-28.985-9.926-39.53-38.091-39.978h-3.818c-28.163,0.448-38.091,10.993-38.091,39.978z" display="none"/>
 <path id="GREEN_1_3_" fill="#EF5500" d="M8,47.978c0,29.633,10.365,40,40,40,29.637,0,40-10.367,40-40,0-28.985-9.926-39.53-38.091-39.978h-3.818c-28.163,0.448-38.091,10.993-38.091,39.978z" display="none"/>
 <path id="GREEN_4_3_" fill="#306600" d="M8,47.978c0,29.633,10.365,40,40,40,29.637,0,40-10.367,40-40,0-28.985-9.926-39.53-38.091-39.978h-3.818c-28.163,0.448-38.091,10.993-38.091,39.978z" display="none"/>
 <path id="GREEN_3_2_" fill="#347708" d="M8,47.978c0,29.633,10.365,40,40,40,29.637,0,40-10.367,40-40,0-28.985-9.926-39.53-38.091-39.978h-3.818c-28.163,0.448-38.091,10.993-38.091,39.978z" display="none"/>
 <path id="GREEN_2_2_" fill="#3E8A41" d="M8,47.978c0,29.633,10.365,40,40,40,29.637,0,40-10.367,40-40,0-28.985-9.926-39.53-38.091-39.978h-3.818c-28.163,0.448-38.091,10.993-38.091,39.978z" display="none"/>
 <path id="GREEN_1_2_" fill="#62B700" d="M8,47.978c0,29.633,10.365,40,40,40,29.637,0,40-10.367,40-40,0-28.985-9.926-39.53-38.091-39.978h-3.818c-28.163,0.448-38.091,10.993-38.091,39.978z" display="none"/>
 <path id="PINK_2_1_" fill="#E800A1" d="M8,47.978c0,29.633,10.365,40,40,40,29.637,0,40-10.367,40-40,0-28.985-9.926-39.53-38.091-39.978h-3.818c-28.163,0.448-38.091,10.993-38.091,39.978z" display="none"/>
 <path id="PINK_1_1_" fill="#CC09BA" d="M8,47.978c0,29.633,10.365,40,40,40,29.637,0,40-10.367,40-40,0-28.985-9.926-39.53-38.091-39.978h-3.818c-28.163,0.448-38.091,10.993-38.091,39.978z" display="none"/>
 <path id="VIOLET_2_1_" fill="#870CBA" d="M8,47.978c0,29.633,10.365,40,40,40,29.637,0,40-10.367,40-40,0-28.985-9.926-39.53-38.091-39.978h-3.818c-28.163,0.448-38.091,10.993-38.091,39.978z" display="none"/>
 <path id="VIOLET_1_1_" fill="#6400BC" d="M8,47.978c0,29.633,10.365,40,40,40,29.637,0,40-10.367,40-40,0-28.985-9.926-39.53-38.091-39.978h-3.818c-28.163,0.448-38.091,10.993-38.091,39.978z" display="none"/>
 <path id="BLUE_4_1_" fill="#1C51AF" d="M8,47.978c0,29.633,10.365,40,40,40,29.637,0,40-10.367,40-40,0-28.985-9.926-39.53-38.091-39.978h-3.818c-28.163,0.448-38.091,10.993-38.091,39.978z" display="none"/>
 <path id="BLUE_3_1_" d="M8,47.978c0,29.633,10.365,40,40,40,29.637,0,40-10.367,40-40,0-28.985-9.926-39.53-38.091-39.978h-3.818c-28.163,0.448-38.091,10.993-38.091,39.978z" fill="#0067BC"/>
 <path id="BLUE_2_1_" fill="#007DC9" d="M8,47.978c0,29.633,10.365,40,40,40,29.637,0,40-10.367,40-40,0-28.985-9.926-39.53-38.091-39.978h-3.818c-28.163,0.448-38.091,10.993-38.091,39.978z" display="none"/>
 <path id="BLUE_1_1_" fill="#09A7CC" d="M8,47.978c0,29.633,10.365,40,40,40,29.637,0,40-10.367,40-40,0-28.985-9.926-39.53-38.091-39.978h-3.818c-28.163,0.448-38.091,10.993-38.091,39.978z" display="none"/>
 <path opacity="0.3255" d="M69.863,25.835c0.145,0.022,0.278,0.063,0.399,0.12,0.12,0.056,0.229,0.128,0.318,0.214,0.091,0.085,0.164,0.184,0.216,0.293s0.082,0.229,0.087,0.357l1.713,42.972c0.01,0.237-0.031,0.464-0.113,0.671s-0.206,0.394-0.361,0.552c-0.156,0.158-0.344,0.286-0.556,0.376-0.211,0.09-0.444,0.141-0.691,0.144l-48.218,0.59c-0.196,0.003-0.375-0.038-0.532-0.113s-0.291-0.186-0.396-0.322c-0.105-0.136-0.182-0.299-0.223-0.48s-0.048-0.381-0.013-0.591l6.397-38.88c0.019-0.118,0.059-0.233,0.115-0.343s0.128-0.215,0.213-0.311,0.184-0.184,0.291-0.261c0.107-0.076,0.224-0.141,0.346-0.192l-0.063,0.393c-0.064,0.039-0.125,0.083-0.18,0.132-0.056,0.049-0.105,0.103-0.149,0.16-0.043,0.057-0.081,0.118-0.109,0.181-0.029,0.063-0.049,0.128-0.06,0.194l-6.33,38.919c-0.022,0.139-0.018,0.271,0.01,0.393s0.079,0.229,0.149,0.321c0.07,0.091,0.16,0.165,0.264,0.215,0.104,0.051,0.223,0.078,0.352,0.076l48.119-0.651c0.163-0.002,0.318-0.036,0.459-0.097s0.266-0.146,0.37-0.252,0.188-0.23,0.243-0.368,0.083-0.288,0.077-0.445l-1.609-42.926c-0.002-0.072-0.018-0.141-0.043-0.204-0.026-0.064-0.063-0.123-0.108-0.176s-0.1-0.1-0.161-0.14c-0.063-0.04-0.131-0.073-0.205-0.098l-0.018-0.423z" fill="#4F565B"/>
 <path opacity="0.2078" d="M69.366,25.438c0.267-0.032,0.523-0.018,0.759,0.033s0.451,0.14,0.634,0.259,0.334,0.27,0.441,0.445,0.172,0.373,0.181,0.588l1.818,43.019c0.014,0.315-0.041,0.617-0.151,0.894-0.111,0.277-0.277,0.529-0.486,0.741-0.21,0.213-0.462,0.386-0.745,0.507-0.282,0.121-0.594,0.19-0.922,0.194l-48.32,0.526c-0.262,0.003-0.501-0.053-0.71-0.155-0.208-0.102-0.386-0.25-0.525-0.435-0.139-0.184-0.239-0.401-0.293-0.645-0.054-0.241-0.062-0.507-0.015-0.785l6.462-38.843c0.033-0.198,0.109-0.392,0.218-0.573s0.251-0.349,0.417-0.496c0.166-0.146,0.354-0.271,0.557-0.367,0.203-0.095,0.42-0.16,0.641-0.187l40.039-4.72zm3.231,44.353l-1.713-42.972c-0.005-0.128-0.035-0.248-0.087-0.357s-0.125-0.208-0.216-0.293c-0.09-0.085-0.198-0.158-0.318-0.214-0.121-0.057-0.255-0.098-0.399-0.12l-40.999,4.733c-0.125,0.066-0.243,0.143-0.352,0.228-0.108,0.085-0.208,0.179-0.293,0.279s-0.159,0.207-0.215,0.318c-0.056,0.111-0.096,0.226-0.115,0.344l-6.397,38.88c-0.035,0.21-0.028,0.41,0.013,0.591,0.042,0.182,0.118,0.345,0.223,0.48,0.105,0.137,0.24,0.247,0.396,0.322s0.336,0.116,0.532,0.113l48.218-0.59c0.247-0.003,0.48-0.054,0.691-0.144s0.399-0.218,0.556-0.376c0.155-0.158,0.279-0.345,0.361-0.552s0.123-0.433,0.114-0.67" fill="#51575D"/>
 <path d="M28.854,30.629l41.007-4.859,0.018,0.486,1.508,42.98-0.587,0.01-47.818,0.835-0.472,0.009,6.182-38.446,0.1-0.622,0.062-0.393zm41.317,37.503l-1.258-41.474-39.353,4.535-5.947,37.871,46.558-0.932" fill="#555B61"/>
 <polygon points="68.913,26.658,70.171,68.132,23.614,69.064,29.561,31.193" fill="#E1EFFA"/>
 <path opacity="0.1176" d="M69.354,25.051c0.334-0.04,0.654-0.023,0.948,0.04,0.295,0.063,0.563,0.174,0.791,0.323s0.416,0.337,0.551,0.556c0.135,0.219,0.215,0.468,0.227,0.737l1.924,43.066c0.018,0.395-0.05,0.773-0.187,1.12-0.138,0.348-0.345,0.662-0.605,0.928-0.262,0.266-0.577,0.481-0.931,0.632s-0.745,0.236-1.158,0.24l-48.42,0.464c-0.326,0.003-0.625-0.066-0.886-0.193-0.261-0.128-0.483-0.313-0.658-0.543-0.174-0.229-0.3-0.502-0.367-0.806-0.067-0.302-0.077-0.634-0.019-0.982l6.528-38.804c0.042-0.249,0.138-0.491,0.275-0.718,0.137-0.226,0.315-0.437,0.522-0.62s0.443-0.339,0.696-0.458,0.523-0.2,0.798-0.232l39.971-4.75zm3.845,44.73l-1.818-43.019c-0.009-0.215-0.073-0.414-0.181-0.588s-0.259-0.325-0.441-0.445-0.397-0.208-0.634-0.259c-0.235-0.051-0.492-0.064-0.759-0.033l-40.041,4.721c-0.221,0.026-0.438,0.091-0.641,0.187-0.203,0.095-0.392,0.22-0.557,0.367-0.166,0.147-0.308,0.315-0.417,0.496s-0.185,0.375-0.218,0.573l-6.462,38.843c-0.046,0.278-0.039,0.544,0.015,0.785,0.054,0.243,0.154,0.461,0.293,0.645,0.139,0.185,0.317,0.333,0.525,0.435,0.209,0.103,0.448,0.158,0.71,0.155l48.32-0.526c0.328-0.004,0.64-0.073,0.922-0.194,0.283-0.121,0.535-0.294,0.745-0.507,0.209-0.212,0.375-0.464,0.486-0.741,0.112-0.278,0.167-0.579,0.153-0.895" fill="#555B61"/>
 <polygon opacity="0.4275" points="70.8,69.247,70.819,69.82,22.9,70.594,22.981,70.082" fill="#41484E"/>
 <path opacity="0.051" d="M69.342,24.672c0.398-0.048,0.782-0.029,1.135,0.045,0.354,0.075,0.676,0.206,0.95,0.383,0.275,0.178,0.503,0.403,0.666,0.664,0.163,0.262,0.262,0.561,0.276,0.885l2.03,43.113c0.022,0.473-0.058,0.929-0.223,1.346-0.166,0.418-0.416,0.798-0.73,1.118-0.316,0.321-0.696,0.583-1.123,0.765-0.426,0.183-0.896,0.286-1.391,0.29l-48.522,0.4c-0.393,0.003-0.752-0.081-1.065-0.236s-0.579-0.38-0.787-0.658c-0.207-0.276-0.356-0.605-0.436-0.97-0.08-0.363-0.089-0.761-0.019-1.178l6.593-38.766c0.051-0.298,0.166-0.589,0.33-0.86s0.376-0.521,0.624-0.74,0.53-0.405,0.833-0.547,0.626-0.239,0.957-0.278l39.902-4.776zm4.452,45.1l-1.924-43.065c-0.012-0.27-0.092-0.519-0.227-0.737s-0.322-0.406-0.551-0.556-0.496-0.26-0.791-0.323c-0.294-0.063-0.614-0.079-0.948-0.04l-39.97,4.749c-0.275,0.033-0.545,0.114-0.798,0.232s-0.489,0.275-0.696,0.458c-0.208,0.183-0.386,0.394-0.522,0.62-0.137,0.227-0.233,0.469-0.275,0.718l-6.528,38.804c-0.059,0.349-0.049,0.681,0.019,0.982,0.067,0.304,0.193,0.576,0.367,0.806,0.175,0.229,0.397,0.415,0.658,0.543,0.261,0.127,0.56,0.196,0.886,0.193l48.42-0.464c0.413-0.004,0.805-0.089,1.158-0.24,0.354-0.15,0.669-0.366,0.931-0.632,0.261-0.266,0.468-0.58,0.605-0.928,0.136-0.346,0.204-0.725,0.186-1.12" fill="#555B61"/>
 <path opacity="0.4275" d="M70.8,69.247l0.587-0.01,0.02,0.573c0.003,0.077-0.012,0.151-0.039,0.219s-0.069,0.13-0.121,0.183c-0.052,0.052-0.114,0.095-0.184,0.125-0.068,0.03-0.145,0.047-0.225,0.049l-48.018,0.713c-0.065,0.001-0.125-0.013-0.178-0.038-0.053-0.024-0.098-0.062-0.133-0.106-0.035-0.045-0.061-0.1-0.076-0.159-0.014-0.06-0.017-0.125-0.005-0.193l0.082-0.511,0.472-0.009-0.082,0.511,47.919-0.773-0.019-0.574z" fill="#484E54"/>
 <path opacity="0.4275" d="M69.879,26.257c0.074,0.025,0.143,0.058,0.205,0.098s0.116,0.087,0.161,0.14c0.046,0.053,0.082,0.112,0.108,0.176,0.025,0.063,0.041,0.132,0.043,0.204l1.609,42.926c0.006,0.157-0.021,0.308-0.077,0.445s-0.139,0.263-0.243,0.368-0.229,0.191-0.37,0.252-0.296,0.095-0.459,0.097l-48.119,0.651c-0.129,0.002-0.248-0.025-0.352-0.076-0.104-0.05-0.193-0.124-0.264-0.215-0.07-0.092-0.121-0.2-0.149-0.321s-0.032-0.254-0.01-0.393l6.33-38.919c0.011-0.066,0.031-0.131,0.06-0.194,0.028-0.063,0.065-0.124,0.109-0.181,0.043-0.058,0.093-0.111,0.149-0.16,0.055-0.049,0.116-0.093,0.18-0.132l-0.1,0.622-6.264,38.957c-0.011,0.068-0.009,0.134,0.006,0.193,0.014,0.061,0.04,0.114,0.075,0.159,0.036,0.045,0.081,0.082,0.133,0.106,0.053,0.025,0.113,0.039,0.178,0.038l48.018-0.713c0.08-0.002,0.156-0.019,0.226-0.049,0.068-0.03,0.131-0.073,0.183-0.125,0.052-0.053,0.094-0.114,0.121-0.183,0.027-0.067,0.042-0.142,0.039-0.219l-0.02-0.573-1.506-42.979z" fill="#4E545A"/>
 <path d="M36.208,45.902c3.452-0.267,2.528,3.451,2.298,5.657-0.083,0.798-0.167,1.596-0.25,2.394-0.008,0.077-2.043,0.126-2.275,0.139,0.148-1.302,0.297-2.604,0.446-3.906,0.057-0.496,0.159-1.015,0.15-1.517-0.03-1.405-1.867-1.038-2.484-0.257-0.896,1.155-0.849,3.233-1.026,4.63-0.041,0.32,0.042,1.211-0.338,1.233-0.677,0.038-1.354,0.077-2.032,0.115,0.247-1.805,0.493-3.609,0.739-5.414,0.111-0.813,0.222-1.627,0.333-2.441,0.036-0.263,1.657-0.224,1.966-0.247-0.017,0.342-0.035,0.684-0.052,1.026,0.564-0.834,1.534-1.335,2.525-1.412z" fill="#4B6777"/>
 <circle cy="42.912" cx="53.898" r="14.97" fill="#EBF6FD"/>
 <defs>
  <circle id="SVGID_1_" cy="42.912" cx="53.898" r="14.97"/>
 </defs>
 <clipPath id="SVGID_2_">
  <use overflow="visible" xlink:href="#SVGID_1_"/>
 </clipPath>
 <g fill="#07171E" clip-path="url(#SVGID_2_)">
  <g enable-background="new    ">
   <path d="M45.39,39.2c0.8-0.064,1.617-0.08,2.413,0.042l-0.403,2.058c-0.918-0.067-2.109-0.109-2.873,0.483-0.763,0.592-0.762,1.688-0.838,2.566l2.855-0.196-0.17,2.286-2.883,0.183-0.72,8.266-2.986,0.131,0.819-8.213-1.86,0.118,0.243-2.25,1.843-0.126c0.28-2.848,1.4-5.098,4.56-5.348z"/>
   <path d="M59.66,44.18c0.257-2.111-2.011-3.225-3.772-3.09-0.368,0.029-0.729-0.3-0.714-0.67,0.023-0.594,0.624-0.75,1.106-0.786,1.913-0.144,3.984,0.883,4.734,2.71,0.254,0.602,0.614,1.799,0.031,2.317-0.445,0.439-1.495,0.319-1.385-0.481z"/>
   <path d="M63.22,44.42c-0.409-0.338-0.224-0.971-0.284-1.434-0.093-0.7-0.346-1.374-0.722-1.97-0.831-1.337-2.262-2.281-3.785-2.633-0.767-0.177-1.537-0.192-2.316-0.114-0.919,0.067-0.87-1.123-0.1-1.355,2.314-0.699,5.303,0.664,6.876,2.329,0.986,1.042,2.246,3.21,1.741,4.724-0.19,0.563-0.94,0.843-1.41,0.453z"/>
  </g>
  <path d="M64.44,36.34c1.538,1.186,2.721,2.818,3.258,4.693,0.206,0.719,0.907,3.67-0.835,3.13-0.601-0.188-0.51-0.761-0.549-1.262-0.066-0.864-0.292-1.711-0.658-2.497-0.716-1.536-1.923-2.795-3.378-3.653-1.431-0.844-3.113-1.296-4.773-1.299-0.39-0.001-2.304,0.271-1.797-0.78,0.442-0.962,2.567-0.584,3.303-0.502,1.969,0.22,3.869,0.96,5.429,2.17z"/>
  <path d="M52.88,43.45c1.228-0.083,2.985,0.133,3.931,1.044l-1.423,2.005c-0.738-0.316-1.338-0.687-2.183-0.693-1.577-0.011-2.822,1.019-3.121,2.561-0.251,1.272-0.178,2.989,1.182,3.591,1.27,0.563,2.945,0.162,4.063-0.569l1.135,1.951c-2.942,2.102-8.479,2.281-9.38-2.082-0.814-3.928,1.786-7.528,5.796-7.808z"/>
 </g>
 <path opacity="0.05" d="M53.898,23.173c-11.436,0-20.739,9.304-20.739,20.739,0,6.089,2.781,12.01,7.458,15.925l-5.986,11.653c-1.157,2.258-0.294,5.027,1.927,6.175,0.636,0.325,1.321,0.49,2.037,0.49,1.728,0,3.297-0.968,4.096-2.525l5.987-11.657c1.715,0.451,3.469,0.68,5.22,0.68,11.437,0,20.74-9.304,20.74-20.74,0.001-11.436-9.303-20.74-20.74-20.74zm0,33.211c-6.875,0-12.469-5.595-12.469-12.472,0-6.876,5.594-12.47,12.469-12.47,6.876,0,12.471,5.594,12.471,12.47,0,6.877-5.595,12.472-12.471,12.472z"/>
 <path opacity="0.07" d="M53.898,23.673c-11.16,0-20.239,9.079-20.239,20.239,0,6.101,2.829,11.973,7.588,15.794l-6.171,12.013c-1.032,2.014-0.266,4.48,1.709,5.501,0.565,0.289,1.174,0.436,1.81,0.436,1.54,0,2.938-0.864,3.651-2.254l6.173-12.018c1.796,0.51,3.638,0.769,5.479,0.769,11.16,0,20.24-9.08,20.24-20.24s-9.079-20.24-20.24-20.24zm0,33.211c-7.151,0-12.969-5.819-12.969-12.972,0-7.151,5.818-12.97,12.969-12.97,7.152,0,12.971,5.818,12.971,12.97s-5.818,12.972-12.971,12.972z"/>
 <path opacity="0.1" d="M53.898,24.173c-10.884,0-19.739,8.855-19.739,19.739,0,6.111,2.878,11.932,7.721,15.655l-6.359,12.379c-0.907,1.77-0.238,3.935,1.493,4.828,0.494,0.253,1.026,0.381,1.582,0.381,1.351,0,2.58-0.76,3.206-1.982l6.362-12.386c1.875,0.574,3.802,0.865,5.735,0.865,10.885,0,19.74-8.855,19.74-19.74,0-10.884-8.856-19.739-19.741-19.739zm0,33.211c-7.427,0-13.469-6.043-13.469-13.472,0-7.427,6.042-13.47,13.469-13.47,7.428,0,13.471,6.042,13.471,13.47,0,7.429-6.043,13.472-13.471,13.472z"/>
 <path opacity="0.15" d="M53.898,24.673c-10.608,0-19.239,8.631-19.239,19.239,0,6.123,2.929,11.887,7.858,15.509l-6.552,12.754c-0.782,1.525-0.21,3.388,1.276,4.154,0.423,0.217,0.879,0.326,1.354,0.326,1.163,0,2.221-0.656,2.761-1.711l6.556-12.762c1.953,0.644,3.964,0.97,5.986,0.97,10.609,0,19.24-8.631,19.24-19.24,0.001-10.608-8.63-19.239-19.24-19.239zm0,33.211c-7.703,0-13.969-6.268-13.969-13.972,0-7.703,6.267-13.97,13.969-13.97,7.703,0,13.971,6.267,13.971,13.97,0,7.704-6.267,13.972-13.971,13.972z"/>
 <path opacity="0.15" d="M53.898,25.173c-10.333,0-18.739,8.406-18.739,18.739,0,6.133,2.982,11.839,8,15.354l-6.749,13.138c-0.656,1.28-0.182,2.841,1.059,3.48,0.352,0.18,0.73,0.271,1.126,0.271,0.974,0,1.862-0.552,2.316-1.439l6.753-13.146c2.028,0.719,4.123,1.083,6.233,1.083,10.333,0,18.74-8.407,18.74-18.74s-8.406-18.74-18.739-18.74zm0,33.211c-7.979,0-14.469-6.492-14.469-14.472,0-7.979,6.491-14.47,14.469-14.47,7.979,0,14.471,6.491,14.471,14.47,0,7.98-6.491,14.472-14.471,14.472z"/>
 <path d="M53.898,24.673c-10.073,0-18.239,8.166-18.239,18.239,0,6.341,3.238,11.921,8.146,15.189l-6.95,13.53c-0.532,1.038-0.155,2.293,0.842,2.807,0.998,0.512,2.238,0.087,2.77-0.951l6.956-13.54c2.015,0.767,4.192,1.205,6.476,1.205,10.074,0,18.24-8.165,18.24-18.24,0-10.073-8.166-18.239-18.241-18.239zm0,33.211c-8.268,0-14.969-6.702-14.969-14.972,0-8.267,6.702-14.97,14.969-14.97,8.269,0,14.971,6.703,14.971,14.97,0,8.27-6.702,14.972-14.971,14.972z" fill="#03000B"/>
 <path d="M39.099,67.265s3.004-1.612,4.55-4.762c1.546-3.149,0.213-4.512,0.213-4.512l-4.763,9.274z" fill="#0E1024"/>
 <path d="M37.934,69.534s-1.082,3.031,0.51,2.688c1.674-0.363,3.606-4.844,4.655-6.889,1.049-2.044,4.375-5.485,4.375-5.485l-3.611-1.856-5.929,11.542z" fill="#0E1024"/>
 <path d="M36.431,41.923c-0.467-3.465,2.693-10.044,5.843-12.449,2.042-1.559,3.845-2.707,6.28-3.519,2.053-0.685,3.341,0.18,0.996,0.992-2.348,0.812-4.028,1.333-6.646,3.454-2.618,2.122-5.353,8.273-5.353,11.16,0,2.888-1.12,0.362-1.12,0.362z" fill="#0E1024"/>
 <radialGradient id="SVGID_3_" gradientUnits="userSpaceOnUse" cy="42.912" cx="53.899" r="14.97">
  <stop stop-color="#FFF" offset="0"/>
  <stop stop-color="#738C9A" offset="1"/>
 </radialGradient>
 <circle cy="42.912" cx="53.898" r="14.97" display="none" fill="url(#SVGID_3_)"/>
 <g opacity="0.89">
  <linearGradient id="SVGID_4_" y2="31.371" gradientUnits="userSpaceOnUse" y1="32.982" x2="46.229" x1="47.159">
   <stop stop-color="#FFF" offset="0"/>
   <stop stop-color="#FFF" offset="1"/>
  </linearGradient>
  <path d="M45.46,33.69c0.89-1.019,2.33-1.467,3.373-1.674l-0.352-1.604s-1.891,0.234-3.937,2.417c-0.06,0.057-0.113,0.117-0.17,0.175,0.306,0.166,0.696,0.396,1.086,0.686z" fill="url(#SVGID_4_)"/>
  <linearGradient id="SVGID_5_" y2="33.939" gradientUnits="userSpaceOnUse" y1="36.739" x2="42.983" x1="44.6">
   <stop stop-color="#FFF" offset="0"/>
   <stop stop-color="#FFF" offset="1"/>
  </linearGradient>
  <path d="M45.23,33.96c-0.41-0.302-0.816-0.528-1.114-0.674-1.481,1.574-1.604,3.694-1.604,3.694l1.164,0.295c0.194-0.845,0.624-2.215,1.554-3.315z" fill="url(#SVGID_5_)"/>
  <linearGradient id="SVGID_6_" y2="33.004" gradientUnits="userSpaceOnUse" y1="34.557" x2="47.24" x1="48.137">
   <stop stop-color="#FFF" offset="0"/>
   <stop stop-color="#FFF" offset="1"/>
  </linearGradient>
  <path d="M45.84,34.01c0.399,0.36,0.782,0.793,1.08,1.163,0.89-0.893,2.328-1.254,2.328-1.254l-0.309-1.408c-0.989,0.199-2.289,0.609-3.099,1.499z" fill="url(#SVGID_6_)"/>
  <linearGradient id="SVGID_7_" y2="34.891" gradientUnits="userSpaceOnUse" y1="37.314" x2="44.531" x1="45.93">
   <stop stop-color="#FFF" offset="0"/>
   <stop stop-color="#FFF" offset="1"/>
  </linearGradient>
  <path d="M45.61,34.27c-0.853,1.009-1.27,2.293-1.469,3.124l1.15,0.292s0.542-1.34,1.388-2.262c-0.299-0.364-0.679-0.804-1.069-1.154z" fill="url(#SVGID_7_)"/>
 </g>
 <linearGradient id="DARK_BEVEL_3_" y2="88.134" gradientUnits="userSpaceOnUse" y1="7.4395" x2="48" x1="48">
  <stop stop-color="#000" stop-opacity="0" offset="0.3614"/>
  <stop stop-color="#000" offset="1"/>
 </linearGradient>
 <path id="DARK_BEVEL_2_" opacity="0.23" d="M88,47.978c0,29.633-10.363,40-40,40-29.635,0-40-10.367-40-40,0-29.634,10.365-40,40-40,29.637,0.001,40,10.366,40,40z" fill="url(#DARK_BEVEL_3_)"/>
 <linearGradient id="LIGHT_BEVEL_3_" y2="78.507" gradientUnits="userSpaceOnUse" y1="3.5234" x2="48" x1="48">
  <stop stop-color="#FFF" offset="0"/>
  <stop stop-color="#FFF" stop-opacity="0.18" offset="1"/>
 </linearGradient>
 <path id="LIGHT_BEVEL_1_" opacity="0.4" d="M88,47.978c0,29.633-10.363,40-40,40-29.635,0-40-10.367-40-40,0-29.634,10.365-40,40-40,29.637,0.001,40,10.366,40,40z" fill="url(#LIGHT_BEVEL_3_)"/>
 <linearGradient id="HIGHLIGHTS_2_" y2="87.477" gradientUnits="userSpaceOnUse" y1="8.2319" x2="48" x1="48">
  <stop stop-color="#FFF" offset="0"/>
  <stop stop-color="#FFF" stop-opacity="0" offset="1"/>
 </linearGradient>
 <path id="HIGHLIGHTS_1_" opacity="0.25" d="M48,7.979c-29.635,0-40,10.365-40,40,0,29.633,10.365,40,40,40,29.637,0,40-10.367,40-40,0-29.635-10.363-40-40-40zm0,79.023c-29.159,0-39-9.848-39-39.024,0-29.175,9.841-39.022,39-39.022,29.158,0,39,9.847,39,39.022,0,29.176-9.842,39.024-39,39.024z" fill="url(#HIGHLIGHTS_2_)"/>
</svg>