<?xml version="1.0" encoding="utf-8"?>
<!-- Generator: Adobe Illustrator 15.0.2, SVG Export Plug-In  -->
<!DOCTYPE svg PUBLIC "-//W3C//DTD SVG 1.1//EN" "http://www.w3.org/Graphics/SVG/1.1/DTD/svg11.dtd" [
	<!ENTITY ns_flows "http://ns.adobe.com/Flows/1.0/">
]>
<svg version="1.1"
	 xmlns="http://www.w3.org/2000/svg" xmlns:xlink="http://www.w3.org/1999/xlink" xmlns:a="http://ns.adobe.com/AdobeSVGViewerExtensions/3.0/"
	 x="0px" y="0px" width="67px" height="57px" viewBox="0 0 67 57" enable-background="new 0 0 67 57" xml:space="preserve">
<defs>
</defs>
<rect id="BOUNDING_BOX_1_" fill="none" width="67" height="57"/>
<path opacity="0.3" d="M54.893,17.609c-1.727-4.788-4.694-8.272-11.118-9.928c-4.794-1.242-8.096-1.213-10.332-1.165
	c-2.24-0.048-5.542-0.077-10.339,1.165c-6.42,1.656-9.392,5.141-11.112,9.928c0,0-3.356,10.418,0,23.787
	c1.235,4.936,4.691,8.272,11.112,9.928c4.797,1.235,8.099,1.21,10.339,1.158c2.236,0.052,5.538,0.077,10.332-1.158
	c6.424-1.655,9.643-5.063,11.118-9.928C58.509,29.466,54.893,17.609,54.893,17.609z M31.632,12.25h3.736
	c1.508,0,2.736,1.229,2.736,2.74l-0.953,14.982c0,1.482-1.229,2.711-2.736,2.711h-1.83c-1.511,0-2.737-1.229-2.74-2.743
	l-0.953-14.924C28.892,13.479,30.121,12.25,31.632,12.25z M33.503,46.752c-2.831,0-5.134-2.304-5.134-5.134
	c0-2.827,2.304-5.128,5.134-5.128c2.824,0,5.125,2.301,5.125,5.128C38.628,44.448,36.327,46.752,33.503,46.752z"/>
<path opacity="0.15" d="M34.792,52.501c-0.496,0-0.953-0.009-1.373-0.019c-0.375,0.01-0.831,0.019-1.328,0.019
	c-1.952,0-5.032-0.126-9.237-1.208c-6.593-1.7-10.463-5.185-11.833-10.653c-3.387-13.491-0.122-23.9,0.019-24.337
	c2.068-5.759,5.708-9.015,11.814-10.59C27.055,4.625,30.151,4.5,32.115,4.5c0.487,0,0.936,0.008,1.349,0.017
	c0.37-0.009,0.817-0.017,1.305-0.017c1.963,0,5.058,0.126,9.257,1.213c6.1,1.573,9.742,4.829,11.808,10.557
	C56,16.813,59.512,28.604,55.85,40.687c-1.697,5.595-5.455,8.965-11.825,10.606C39.822,52.375,36.743,52.501,34.792,52.501
	L34.792,52.501z M33.503,36.49c-2.28,0-4.134,1.852-4.134,4.128c0,2.279,1.854,4.134,4.134,4.134c2.274,0,4.125-1.854,4.125-4.134
	C37.628,38.342,35.777,36.49,33.503,36.49z M31.632,12.25c-0.959,0-1.74,0.792-1.74,1.766l0.951,14.86
	c0.004,1.024,0.785,1.807,1.742,1.807h1.83c0.957,0,1.736-0.768,1.736-1.711l0.955-15.045c-0.002-0.896-0.781-1.677-1.738-1.677
	H31.632z"/>
<path opacity="0.15" d="M54.893,16.609c-1.727-4.788-4.694-8.272-11.118-9.928c-4.794-1.242-8.096-1.213-10.332-1.165
	c-2.24-0.048-5.542-0.077-10.339,1.165c-6.42,1.656-9.392,5.141-11.112,9.928c0,0-3.356,10.418,0,23.787
	c1.235,4.936,4.691,8.272,11.112,9.928c4.797,1.235,8.099,1.21,10.339,1.158c2.236,0.052,5.538,0.077,10.332-1.158
	c6.424-1.655,9.643-5.063,11.118-9.928C58.509,28.466,54.893,16.609,54.893,16.609z M31.632,11.25h3.736
	c1.508,0,2.736,1.229,2.736,2.74l-0.953,14.982c0,1.482-1.229,2.711-2.736,2.711h-1.83c-1.511,0-2.737-1.229-2.74-2.743
	l-0.953-14.924C28.892,12.479,30.121,11.25,31.632,11.25z M33.503,45.752c-2.831,0-5.134-2.304-5.134-5.134
	c0-2.827,2.304-5.128,5.134-5.128c2.824,0,5.125,2.301,5.125,5.128C38.628,43.448,36.327,45.752,33.503,45.752z"/>
<linearGradient id="SVGID_1_" gradientUnits="userSpaceOnUse" x1="33.5005" y1="51.501" x2="33.5005" y2="5.5">
	<stop  offset="0" style="stop-color:#D0CBC5"/>
	<stop  offset="0.5031" style="stop-color:#FAFCEF"/>
	<stop  offset="0.9693" style="stop-color:#FFFFFF"/>
</linearGradient>
<path fill="url(#SVGID_1_)" d="M54.893,16.609c-1.727-4.788-4.694-8.272-11.118-9.928c-4.794-1.242-8.096-1.213-10.332-1.165
	c-2.24-0.048-5.542-0.077-10.339,1.165c-6.42,1.656-9.392,5.141-11.112,9.928c0,0-3.356,10.418,0,23.787
	c1.235,4.936,4.691,8.272,11.112,9.928c4.797,1.235,8.099,1.21,10.339,1.158c2.236,0.052,5.538,0.077,10.332-1.158
	c6.424-1.655,9.643-5.063,11.118-9.928C58.509,28.466,54.893,16.609,54.893,16.609z M31.632,11.25h3.736
	c1.508,0,2.736,1.229,2.736,2.74l-0.953,14.982c0,1.482-1.229,2.711-2.736,2.711h-1.83c-1.511,0-2.737-1.229-2.74-2.743
	l-0.953-14.924C28.892,12.479,30.121,11.25,31.632,11.25z M33.503,45.752c-2.831,0-5.134-2.304-5.134-5.134
	c0-2.827,2.304-5.128,5.134-5.128c2.824,0,5.125,2.301,5.125,5.128C38.628,43.448,36.327,45.752,33.503,45.752z"/>
<path fill="#FFFFFF" d="M33.503,46.752c2.824,0,5.125-2.304,5.125-5.134c0-0.171-0.034-0.333-0.051-0.5
	c-0.255,2.593-2.421,4.634-5.074,4.634c-2.659,0-4.828-2.041-5.083-4.634c-0.017,0.167-0.051,0.329-0.051,0.5
	C28.369,44.448,30.673,46.752,33.503,46.752z"/>
<path fill="#FFFFFF" d="M11.992,17.609c1.72-4.788,4.691-8.272,11.112-9.928c4.797-1.242,8.099-1.213,10.339-1.165
	c2.236-0.048,5.538-0.077,10.332,1.165c6.424,1.656,9.392,5.141,11.118,9.928c0,0,1.529,5.022,1.604,11.816
	c0.078-7.296-1.604-12.816-1.604-12.816c-1.727-4.788-4.694-8.272-11.118-9.928c-4.794-1.242-8.096-1.213-10.332-1.165
	c-2.24-0.048-5.542-0.077-10.339,1.165c-6.42,1.656-9.392,5.141-11.112,9.928c0,0-1.561,4.852-1.488,12.178
	C10.572,22.023,11.992,17.609,11.992,17.609z"/>
<path fill="#FFFFFF" d="M29.845,29.94c0.003,1.515,1.229,2.743,2.74,2.743h1.83c1.508,0,2.736-1.229,2.736-2.711l0.953-14.982
	c0-0.132-0.021-0.259-0.039-0.386l-0.914,14.368c0,1.482-1.229,2.711-2.736,2.711h-1.83c-1.511,0-2.737-1.229-2.74-2.743
	l-0.914-14.314c-0.018,0.128-0.039,0.257-0.039,0.391L29.845,29.94z"/>
</svg>
