<?xml version="1.0" encoding="UTF-8" standalone="no"?>
<!-- Created with Inkscape (http://www.inkscape.org/) -->

<svg
   xmlns:dc="http://purl.org/dc/elements/1.1/"
   xmlns:cc="http://creativecommons.org/ns#"
   xmlns:rdf="http://www.w3.org/1999/02/22-rdf-syntax-ns#"
   xmlns:svg="http://www.w3.org/2000/svg"
   xmlns="http://www.w3.org/2000/svg"
   xmlns:sodipodi="http://sodipodi.sourceforge.net/DTD/sodipodi-0.dtd"
   xmlns:inkscape="http://www.inkscape.org/namespaces/inkscape"
   id="svg25573"
   version="1.1"
   inkscape:version="0.48.2 r9819"
   width="77.948"
   height="87.85275"
   xml:space="preserve"
   sodipodi:docname="NfcTouchTag-Manual3D.ai"><metadata
     id="metadata25579"><rdf:RDF><cc:Work
         rdf:about=""><dc:format>image/svg+xml</dc:format><dc:type
           rdf:resource="http://purl.org/dc/dcmitype/StillImage" /><dc:title></dc:title></cc:Work></rdf:RDF></metadata><defs
     id="defs25577"><clipPath
       clipPathUnits="userSpaceOnUse"
       id="clipPath25587"><path
         d="m 0,70.282 62.358,0 L 62.358,0 0,0 0,70.282 z"
         id="path25589" /></clipPath><clipPath
       clipPathUnits="userSpaceOnUse"
       id="clipPath25595"><path
         d="m 9.50049,59.2817 23.04151,0 0,-23.0405 -23.04151,0 0,23.0405 z"
         id="path25597" /></clipPath><clipPath
       clipPathUnits="userSpaceOnUse"
       id="clipPath25611"><path
         d="m 10.0015,58.2803 22.0405,0 0,-22.0391 -22.0405,0 0,22.0391 z"
         id="path25613" /></clipPath><linearGradient
       x1="0"
       y1="0"
       x2="1"
       y2="0"
       gradientUnits="userSpaceOnUse"
       gradientTransform="matrix(0,22.038086,22.038086,0,21.021973,36.742187)"
       spreadMethod="pad"
       id="linearGradient25635"><stop
         style="stop-opacity:1;stop-color:#d0cbc5"
         offset="0"
         id="stop25637" /><stop
         style="stop-opacity:1;stop-color:#fafcef"
         offset="0.503098"
         id="stop25639" /><stop
         style="stop-opacity:1;stop-color:#ffffff"
         offset="0.969299"
         id="stop25641" /><stop
         style="stop-opacity:1;stop-color:#ffffff"
         offset="1"
         id="stop25643" /></linearGradient><clipPath
       clipPathUnits="userSpaceOnUse"
       id="clipPath25651"><path
         d="m 0,70.282 62.358,0 L 62.358,0 0,0 0,70.282 z"
         id="path25653" /></clipPath><clipPath
       clipPathUnits="userSpaceOnUse"
       id="clipPath25667"><path
         d="m 0,70.282 62.358,0 L 62.358,0 0,0 0,70.282 z"
         id="path25669" /></clipPath><clipPath
       clipPathUnits="userSpaceOnUse"
       id="clipPath25675"><path
         d="m 18.1631,55.9155 34.7773,0 0,-45.3169 -34.7773,0 0,45.3169 z"
         id="path25677" /></clipPath><clipPath
       clipPathUnits="userSpaceOnUse"
       id="clipPath25691"><path
         d="m 19.1138,54.5952 33.146,0 0,-43.9892 -33.146,0 0,43.9892 z"
         id="path25693" /></clipPath><linearGradient
       x1="0"
       y1="0"
       x2="1"
       y2="0"
       gradientUnits="userSpaceOnUse"
       gradientTransform="matrix(0,43.481445,43.481445,0,35.507812,11.776367)"
       spreadMethod="pad"
       id="linearGradient25715"><stop
         style="stop-opacity:1;stop-color:#d0cbc5"
         offset="0"
         id="stop25717" /><stop
         style="stop-opacity:1;stop-color:#fafcef"
         offset="0.503098"
         id="stop25719" /><stop
         style="stop-opacity:1;stop-color:#ffffff"
         offset="0.969299"
         id="stop25721" /><stop
         style="stop-opacity:1;stop-color:#ffffff"
         offset="1"
         id="stop25723" /></linearGradient><clipPath
       clipPathUnits="userSpaceOnUse"
       id="clipPath25731"><path
         d="m 0,70.282 62.358,0 L 62.358,0 0,0 0,70.282 z"
         id="path25733" /></clipPath></defs><sodipodi:namedview
     pagecolor="#ffffff"
     bordercolor="#666666"
     borderopacity="1"
     objecttolerance="10"
     gridtolerance="10"
     guidetolerance="10"
     inkscape:pageopacity="0"
     inkscape:pageshadow="2"
     inkscape:window-width="1920"
     inkscape:window-height="1125"
     id="namedview25575"
     showgrid="false"
     inkscape:zoom="7.1"
     inkscape:cx="38.973999"
     inkscape:cy="43.926376"
     inkscape:window-x="-9"
     inkscape:window-y="-9"
     inkscape:window-maximized="1"
     inkscape:current-layer="g25581" /><g
     id="g25581"
     inkscape:groupmode="layer"
     inkscape:label="NfcTouchTag-Manual3D"
     transform="matrix(1.25,0,0,-1.25,0,87.85275)"><g
       id="g25583"><g
         id="g25585"
         clip-path="url(#clipPath25587)"><g
           id="g25591"><g
             id="g25593" /><g
             id="g25599"><g
               clip-path="url(#clipPath25595)"
               opacity="0.149994"
               id="g25601"><g
                 transform="translate(11.1611,36.2412)"
                 id="g25603"><path
                   d="m 0,0 c -0.916,0 -1.661,0.745 -1.661,1.66 l 0,19.72 c 0,0.916 0.745,1.661 1.661,1.661 l 19.72,0 c 0.917,0 1.661,-0.745 1.661,-1.661 l 0,-19.72 C 21.381,0.745 20.637,0 19.72,0 L 0,0 z"
                   style="fill:#000000;fill-opacity:1;fill-rule:nonzero;stroke:none"
                   id="path25605" /></g></g></g></g><g
           id="g25607"><g
             id="g25609" /><g
             id="g25615"><g
               clip-path="url(#clipPath25611)"
               opacity="0.300003"
               id="g25617"><g
                 transform="translate(32.042,37.4004)"
                 id="g25619"><path
                   d="m 0,0 c 0,-0.639 -0.52,-1.159 -1.161,-1.159 l -19.72,0 c -0.64,0 -1.16,0.52 -1.16,1.159 l 0,19.72 c 0,0.64 0.52,1.16 1.16,1.16 l 19.72,0 C -0.52,20.88 0,20.36 0,19.72 L 0,0 z"
                   style="fill:#000000;fill-opacity:1;fill-rule:nonzero;stroke:none"
                   id="path25621" /></g></g></g></g></g></g><g
       id="g25623"><g
         id="g25625"><g
           id="g25631"><g
             id="g25633"><path
               d="m 11.161,58.781 c -0.64,0 -1.159,-0.519 -1.159,-1.159 l 0,0 0,-19.72 c 0,-0.64 0.519,-1.159 1.159,-1.159 l 0,0 19.721,0 c 0.64,0 1.16,0.519 1.16,1.159 l 0,0 0,19.72 c 0,0.64 -0.52,1.159 -1.16,1.159 l 0,0 -19.721,0 z"
               style="fill:url(#linearGradient25635);stroke:none"
               id="path25645" /></g></g></g></g><g
       id="g25647"><g
         id="g25649"
         clip-path="url(#clipPath25651)"><g
           id="g25655"
           transform="translate(30.8813,58.7808)"><path
             d="m 0,0 -19.72,0 c -0.64,0 -1.16,-0.52 -1.16,-1.159 l 0,-0.501 c 0,0.64 0.52,1.16 1.16,1.16 L 0,-0.5 c 0.641,0 1.161,-0.52 1.161,-1.16 l 0,0.501 C 1.161,-0.52 0.641,0 0,0"
             style="fill:#ffffff;fill-opacity:1;fill-rule:nonzero;stroke:none"
             id="path25657" /></g></g></g><g
       id="g25659"
       transform="translate(20.771,52.1021)"><path
         d="M 0,0 20.811,1.152 30.1,-35.313 4.69,-38.921 0,0 z"
         style="fill:#ffffff;fill-opacity:1;fill-rule:nonzero;stroke:none"
         id="path25661" /></g><g
       id="g25663"><g
         id="g25665"
         clip-path="url(#clipPath25667)"><g
           id="g25671"><g
             id="g25673" /><g
             id="g25679"><g
               clip-path="url(#clipPath25675)"
               opacity="0.149994"
               id="g25681"><g
                 transform="translate(47.1123,24.8359)"
                 id="g25683"><path
                   d="M 0,0 -6.436,25.624 -24.526,25.052 -21.013,-1.995 0,0 z m -15.729,-6.801 c -0.276,-0.031 -0.468,-0.298 -0.422,-0.596 0.046,-0.299 0.313,-0.519 0.591,-0.488 l 12.813,1.409 c 0.263,0.03 0.424,0.289 0.357,0.575 -0.067,0.288 -0.334,0.497 -0.593,0.469 l -12.746,-1.369 z m -4.785,-7.421 c -1.028,-0.128 -2.187,0.531 -2.688,1.522 l -1.731,3.443 c -0.341,0.677 -0.653,1.755 -0.729,2.501 l -3.274,32.415 c -0.05,0.502 0.041,1.23 0.212,1.693 l 0.832,2.261 c 0.23,0.623 1.003,1.101 1.798,1.116 l 19.053,0.35 c 0.725,0.013 1.589,-0.411 2.012,-0.99 l 1.53,-2.081 c 0.311,-0.424 0.645,-1.096 0.773,-1.566 l 8.3,-29.921 C 5.765,-4.16 5.868,-5.18 5.813,-5.85 L 5.539,-9.271 c -0.077,-0.991 -0.824,-1.833 -1.733,-1.945 l -24.32,-3.006 z"
                   style="fill:#000000;fill-opacity:1;fill-rule:nonzero;stroke:none"
                   id="path25685" /></g></g></g></g><g
           id="g25687"><g
             id="g25689" /><g
             id="g25695"><g
               clip-path="url(#clipPath25691)"
               opacity="0.300003"
               id="g25697"><g
                 transform="translate(48.5186,22.9697)"
                 id="g25699"><path
                   d="M 0,0 -23.167,-2.313 -26.792,26.891 -7.055,27.515 0,0 z m -3.672,-6.731 -12.952,-1.494 c -0.852,-0.098 -1.657,0.572 -1.791,1.489 -0.133,0.907 0.442,1.711 1.28,1.801 l 12.745,1.369 c 0.786,0.085 1.584,-0.543 1.787,-1.409 0.207,-0.874 -0.27,-1.664 -1.069,-1.756 m -1.692,35.65 -1.533,2.109 c -0.249,0.338 -0.792,0.606 -1.21,0.597 L -27.329,31.21 c -0.46,-0.01 -0.944,-0.315 -1.075,-0.68 l -0.821,-2.288 c -0.135,-0.379 -0.212,-1.024 -0.167,-1.433 l 3.491,-32.687 c 0.065,-0.611 0.345,-1.561 0.625,-2.112 l 1.751,-3.459 c 0.291,-0.57 1.015,-0.98 1.605,-0.906 L 2.399,-9.35 c 0.523,0.065 0.992,0.592 1.039,1.166 l 0.291,3.456 c 0.044,0.551 -0.041,1.456 -0.194,2.014 l -8.248,30.302 c -0.104,0.384 -0.398,0.983 -0.651,1.331"
                   style="fill:#000000;fill-opacity:1;fill-rule:nonzero;stroke:none"
                   id="path25701" /></g></g></g></g></g></g><g
       id="g25703"><g
         id="g25705"><g
           id="g25711"><g
             id="g25713"><path
               d="M 40.24,55.258 21.103,54.876 c -0.458,-0.009 -0.94,-0.31 -1.07,-0.672 l 0,0 -0.818,-2.264 C 19.08,51.565 19.003,50.926 19.047,50.521 l 0,0 3.452,-32.331 c 0.065,-0.602 0.344,-1.542 0.62,-2.087 l 0,0 1.74,-3.419 c 0.289,-0.563 1.008,-0.97 1.594,-0.899 l 0,0 24.184,2.921 c 0.521,0.064 0.989,0.583 1.037,1.151 l 0,0 0.295,3.415 c 0.045,0.543 -0.039,1.438 -0.189,1.99 l 0,0 -8.164,29.993 c -0.104,0.381 -0.395,0.973 -0.645,1.319 l 0,0 -1.527,2.091 c -0.24,0.33 -0.77,0.593 -1.185,0.593 l 0,0 c -0.007,0 -0.013,0 -0.019,0 m -18.605,-4.659 19.65,0.587 6.983,-27.235 -23.046,-2.244 -3.587,28.892 z m 8.308,-33.27 c -0.132,0.897 0.441,1.689 1.274,1.776 l 0,0 12.678,1.329 c 0.78,0.082 1.576,-0.539 1.776,-1.394 l 0,0 C 45.875,18.175 45.4,17.394 44.605,17.307 l 0,0 -12.882,-1.453 c -0.054,-0.006 -0.109,-0.009 -0.162,-0.009 l 0,0 c -0.786,0 -1.493,0.636 -1.618,1.484"
               style="fill:url(#linearGradient25715);stroke:none"
               id="path25725" /></g></g></g></g><g
       id="g25727"><g
         id="g25729"
         clip-path="url(#clipPath25731)"><g
           id="g25735"
           transform="translate(42.9707,52.5737)"><path
             d="M 0,0 -1.526,2.091 C -1.771,2.426 -2.313,2.692 -2.73,2.685 L -21.867,2.302 c -0.459,-0.009 -0.941,-0.31 -1.071,-0.672 l -0.818,-2.264 c -0.135,-0.375 -0.211,-1.013 -0.168,-1.419 l 0.08,-0.742 c -0.045,0.409 0.032,1.054 0.167,1.435 l 0.821,2.288 c 0.13,0.363 0.615,0.668 1.075,0.678 L -2.56,2.021 c 0.418,0.009 0.962,-0.259 1.21,-0.598 l 1.535,-2.11 C 0.437,-1.033 0.73,-1.632 0.835,-2.016 L 0.646,-1.318 C 0.542,-0.938 0.25,-0.346 0,0 m 1.634,-35.267 -12.882,-1.452 c -0.665,-0.076 -1.299,0.323 -1.606,0.938 -0.03,-0.179 -0.041,-0.366 -0.013,-0.559 0.134,-0.917 0.939,-1.587 1.791,-1.489 l 12.952,1.494 c 0.799,0.092 1.276,0.882 1.069,1.756 -0.042,0.184 -0.119,0.354 -0.21,0.514 -0.054,-0.632 -0.476,-1.132 -1.101,-1.202 m -19.253,3.35 23.167,2.313 -0.251,0.981 -23.047,-2.244 0.131,-1.05 z"
             style="fill:#ffffff;fill-opacity:1;fill-rule:nonzero;stroke:none"
             id="path25737" /></g></g></g></g></svg>