<?xml version="1.0" encoding="UTF-8" standalone="no"?>
<svg
   xmlns:dc="http://purl.org/dc/elements/1.1/"
   xmlns:cc="http://creativecommons.org/ns#"
   xmlns:rdf="http://www.w3.org/1999/02/22-rdf-syntax-ns#"
   xmlns:svg="http://www.w3.org/2000/svg"
   xmlns="http://www.w3.org/2000/svg"
   xmlns:sodipodi="http://sodipodi.sourceforge.net/DTD/sodipodi-0.dtd"
   xmlns:inkscape="http://www.inkscape.org/namespaces/inkscape"
   height="42px"
   version="1.1"
   viewBox="0 0 42 42"
   width="42px"
   x="0px"
   y="0px"
   id="svg16586"
   inkscape:version="0.48.2 r9819"
   sodipodi:docname="qtg_graf_textfield_add_pressed.svg">
  <metadata
     id="metadata16609">
    <rdf:RDF>
      <cc:Work
         rdf:about="">
        <dc:format>image/svg+xml</dc:format>
        <dc:type
           rdf:resource="http://purl.org/dc/dcmitype/StillImage" />
        <dc:title></dc:title>
      </cc:Work>
    </rdf:RDF>
  </metadata>
  <sodipodi:namedview
     pagecolor="#ffffff"
     bordercolor="#666666"
     borderopacity="1"
     objecttolerance="10"
     gridtolerance="10"
     guidetolerance="10"
     inkscape:pageopacity="0"
     inkscape:pageshadow="2"
     inkscape:window-width="1920"
     inkscape:window-height="1138"
     id="namedview16607"
     showgrid="false"
     inkscape:zoom="10"
     inkscape:cx="5.4"
     inkscape:cy="21"
     inkscape:window-x="-8"
     inkscape:window-y="-8"
     inkscape:window-maximized="1"
     inkscape:current-layer="svg16586" />
  <path
     d="M1,40V2h19c13.794,0,18,4.206,18,18v2c0,13.794-4.206,18-18,18H1z"
     fill="#1080DD"
     id="path16588" />
  <path
     d="M1,39.699v-38h19c13.794,0,18,4.206,18,18v2c0,13.794-4.206,18-18,18H1z"
     id="path16590"
     stroke-opacity="0.3"
     fill-opacity="0.3"
     fill="url(#SVGID_1_)" />
  <rect
     fill-opacity="0.1"
     height="40"
     stroke-opacity="0.1"
     width="1"
     y="1"
     id="rect16592" />
  <rect
     fill="none"
     height="42"
     width="42"
     id="rect16596" />
  <defs
     id="defs16598">
    <linearGradient
       gradientUnits="userSpaceOnUse"
       id="SVGID_1_"
       x1="19.5005"
       x2="19.5005"
       y1="39.6992"
       y2="2.2464">
      <stop
         offset="0"
         style="stop-color:#FFFFFF"
         id="stop16601" />
      <stop
         offset="0.1375"
         style="stop-color:#FFFFFF;stop-opacity:0.8625"
         id="stop16603" />
      <stop
         offset="1"
         style="stop-color:#FFFFFF;stop-opacity:0"
         id="stop16605" />
    </linearGradient>
  </defs>
  <path
     sodipodi:type="arc"
     style="fill:#ffffff;fill-opacity:1"
     id="path16611"
     sodipodi:cx="4.8050847"
     sodipodi:cy="20.11017"
     sodipodi:rx="3.0254238"
     sodipodi:ry="3.0254238"
     d="m 7.8305085,20.11017 a 3.0254238,3.0254238 0 1 1 -6.0508476,0 3.0254238,3.0254238 0 1 1 6.0508476,0 z"
     transform="translate(14.059323,0.7118636)" />
  <path
     sodipodi:type="arc"
     style="fill:#ffffff;fill-opacity:1"
     id="path16611-1"
     sodipodi:cx="4.8050847"
     sodipodi:cy="20.11017"
     sodipodi:rx="3.0254238"
     sodipodi:ry="3.0254238"
     d="m 7.8305085,20.11017 a 3.0254238,3.0254238 0 1 1 -6.0508476,0 3.0254238,3.0254238 0 1 1 6.0508476,0 z"
     transform="translate(22.868644,0.7118636)" />
  <path
     sodipodi:type="arc"
     style="fill:#ffffff;fill-opacity:1"
     id="path16611-1-7"
     sodipodi:cx="4.8050847"
     sodipodi:cy="20.11017"
     sodipodi:rx="3.0254238"
     sodipodi:ry="3.0254238"
     d="m 7.8305085,20.11017 a 3.0254238,3.0254238 0 1 1 -6.0508476,0 3.0254238,3.0254238 0 1 1 6.0508476,0 z"
     transform="translate(5.2500002,0.7118636)" />
</svg>
