<?xml version="1.0" encoding="utf-8"?>
<!-- Generator: Adobe Illustrator 15.0.2, SVG Export Plug-In  -->
<!DOCTYPE svg PUBLIC "-//W3C//DTD SVG 1.1//EN" "http://www.w3.org/Graphics/SVG/1.1/DTD/svg11.dtd" [
	<!ENTITY ns_flows "http://ns.adobe.com/Flows/1.0/">
]>
<svg version="1.1"
	 xmlns="http://www.w3.org/2000/svg" xmlns:xlink="http://www.w3.org/1999/xlink" xmlns:a="http://ns.adobe.com/AdobeSVGViewerExtensions/3.0/"
	 x="0px" y="0px" width="67px" height="57px" viewBox="0 0 67 57" enable-background="new 0 0 67 57" xml:space="preserve">
<defs>
</defs>
<rect id="BOUNDING_BOX_1_" fill="none" width="67" height="57"/>
<path opacity="0.3" d="M19.069,52.5h28.863l1.804-34.274H17.265L19.069,52.5z M38.912,25.441c0-0.997,0.807-1.804,1.804-1.804
	s1.804,0.807,1.804,1.804V43.48c0,0.997-0.807,1.804-1.804,1.804s-1.804-0.807-1.804-1.804V25.441z M31.696,25.441
	c0-0.997,0.807-1.804,1.804-1.804s1.804,0.807,1.804,1.804V43.48c0,0.997-0.807,1.804-1.804,1.804s-1.804-0.807-1.804-1.804V25.441z
	 M24.48,25.441c0-0.997,0.807-1.804,1.804-1.804s1.804,0.807,1.804,1.804V43.48c0,0.997-0.807,1.804-1.804,1.804
	s-1.804-0.807-1.804-1.804V25.441z M49.735,11.01h-9.922V9.206c0-1.491-1.212-2.706-2.706-2.706h-7.215
	c-1.491,0-2.706,1.215-2.706,2.706v1.804h-9.922c-0.997,0-1.804,0.809-1.804,1.804v1.804h36.078v-1.804
	C51.539,11.818,50.729,11.01,49.735,11.01z M37.107,11.01h-7.215V9.206h7.215V11.01z"/>
<path opacity="0.15" d="M19.069,52.5c-0.532,0-0.971-0.416-0.999-0.947l-1.804-34.274c-0.015-0.274,0.084-0.542,0.273-0.741
	c0.189-0.199,0.451-0.312,0.726-0.312h32.471c0.274,0,0.537,0.113,0.726,0.312c0.188,0.199,0.287,0.467,0.273,0.741l-1.804,34.274
	c-0.028,0.531-0.467,0.947-0.999,0.947H19.069z M40.716,23.638c-0.443,0-0.804,0.36-0.804,0.804V42.48
	c0,0.443,0.36,0.804,0.804,0.804s0.804-0.36,0.804-0.804V24.441C41.52,23.998,41.159,23.638,40.716,23.638z M33.5,23.638
	c-0.443,0-0.804,0.36-0.804,0.804V42.48c0,0.443,0.36,0.804,0.804,0.804s0.804-0.36,0.804-0.804V24.441
	C34.304,23.998,33.943,23.638,33.5,23.638z M26.284,23.638c-0.443,0-0.804,0.36-0.804,0.804V42.48c0,0.443,0.36,0.804,0.804,0.804
	s0.804-0.36,0.804-0.804V24.441C27.088,23.998,26.728,23.638,26.284,23.638z M15.461,14.618c-0.552,0-1-0.448-1-1v-1.804
	c0-1.546,1.258-2.804,2.804-2.804h8.922V8.206c0-2.043,1.663-3.706,3.706-3.706h7.215c2.044,0,3.706,1.663,3.706,3.706V9.01h8.922
	c1.546,0,2.804,1.258,2.804,2.804v1.804c0,0.552-0.447,1-1,1H15.461z"/>
<path opacity="0.15" d="M19.069,51.5h28.863l1.804-34.274H17.265L19.069,51.5z M38.912,24.441c0-0.997,0.807-1.804,1.804-1.804
	s1.804,0.807,1.804,1.804V42.48c0,0.997-0.807,1.804-1.804,1.804s-1.804-0.807-1.804-1.804V24.441z M31.696,24.441
	c0-0.997,0.807-1.804,1.804-1.804s1.804,0.807,1.804,1.804V42.48c0,0.997-0.807,1.804-1.804,1.804s-1.804-0.807-1.804-1.804V24.441z
	 M24.48,24.441c0-0.997,0.807-1.804,1.804-1.804s1.804,0.807,1.804,1.804V42.48c0,0.997-0.807,1.804-1.804,1.804
	s-1.804-0.807-1.804-1.804V24.441z M49.735,10.01h-9.922V8.206c0-1.491-1.212-2.706-2.706-2.706h-7.215
	c-1.491,0-2.706,1.215-2.706,2.706v1.804h-9.922c-0.997,0-1.804,0.809-1.804,1.804v1.804h36.078v-1.804
	C51.539,10.818,50.729,10.01,49.735,10.01z M37.107,10.01h-7.215V8.206h7.215V10.01z"/>
<linearGradient id="SVGID_1_" gradientUnits="userSpaceOnUse" x1="33.5005" y1="51.5" x2="33.5005" y2="5.5005">
	<stop  offset="0" style="stop-color:#D0CBC5"/>
	<stop  offset="0.5031" style="stop-color:#FAFCEF"/>
	<stop  offset="0.9693" style="stop-color:#FFFFFF"/>
</linearGradient>
<path fill="url(#SVGID_1_)" d="M19.069,51.5h28.863l1.804-34.274H17.265L19.069,51.5z M38.912,24.441
	c0-0.997,0.807-1.804,1.804-1.804s1.804,0.807,1.804,1.804V42.48c0,0.997-0.807,1.804-1.804,1.804s-1.804-0.807-1.804-1.804V24.441z
	 M31.696,24.441c0-0.997,0.807-1.804,1.804-1.804s1.804,0.807,1.804,1.804V42.48c0,0.997-0.807,1.804-1.804,1.804
	s-1.804-0.807-1.804-1.804V24.441z M24.48,24.441c0-0.997,0.807-1.804,1.804-1.804s1.804,0.807,1.804,1.804V42.48
	c0,0.997-0.807,1.804-1.804,1.804s-1.804-0.807-1.804-1.804V24.441z M49.735,10.01h-9.922V8.206c0-1.491-1.212-2.706-2.706-2.706
	h-7.215c-1.491,0-2.706,1.215-2.706,2.706v1.804h-9.922c-0.997,0-1.804,0.809-1.804,1.804v1.804h36.078v-1.804
	C51.539,10.818,50.729,10.01,49.735,10.01z M37.107,10.01h-7.215V8.206h7.215V10.01z"/>
<path fill="#FFFFFF" d="M26.284,45.284c0.997,0,1.804-0.807,1.804-1.804v-1c0,0.997-0.807,1.804-1.804,1.804
	s-1.804-0.807-1.804-1.804v1C24.48,44.478,25.287,45.284,26.284,45.284z"/>
<rect x="29.893" y="10.01" fill="#FFFFFF" width="7.215" height="1"/>
<path fill="#FFFFFF" d="M29.893,6.5h7.215c1.494,0,2.706,1.215,2.706,2.706v-1c0-1.491-1.212-2.706-2.706-2.706h-7.215
	c-1.491,0-2.706,1.215-2.706,2.706v1C27.187,7.715,28.401,6.5,29.893,6.5z"/>
<path fill="#FFFFFF" d="M17.265,11.01h9.922v-1h-9.922c-0.997,0-1.804,0.809-1.804,1.804v1C15.461,11.818,16.268,11.01,17.265,11.01
	z"/>
<path fill="#FFFFFF" d="M33.5,45.284c0.997,0,1.804-0.807,1.804-1.804v-1c0,0.997-0.807,1.804-1.804,1.804s-1.804-0.807-1.804-1.804
	v1C31.696,44.478,32.503,45.284,33.5,45.284z"/>
<polygon fill="#FFFFFF" points="17.317,18.226 49.683,18.226 49.735,17.226 17.265,17.226 "/>
<path fill="#FFFFFF" d="M49.735,10.01h-9.922v1h9.922c0.993,0,1.804,0.809,1.804,1.804v-1C51.539,10.818,50.729,10.01,49.735,10.01z
	"/>
<path fill="#FFFFFF" d="M40.716,45.284c0.997,0,1.804-0.807,1.804-1.804v-1c0,0.997-0.807,1.804-1.804,1.804
	s-1.804-0.807-1.804-1.804v1C38.912,44.478,39.719,45.284,40.716,45.284z"/>
</svg>
