<?xml version="1.0" encoding="utf-8"?>
<!-- Generator: Adobe Illustrator 15.0.2, SVG Export Plug-In  -->
<!DOCTYPE svg PUBLIC "-//W3C//DTD SVG 1.1//EN" "http://www.w3.org/Graphics/SVG/1.1/DTD/svg11.dtd" [
	<!ENTITY ns_flows "http://ns.adobe.com/Flows/1.0/">
]>
<svg version="1.1"
	 xmlns="http://www.w3.org/2000/svg" xmlns:xlink="http://www.w3.org/1999/xlink" xmlns:a="http://ns.adobe.com/AdobeSVGViewerExtensions/3.0/"
	 x="0px" y="0px" width="67px" height="67px" viewBox="0 0 67 67" enable-background="new 0 0 67 67" xml:space="preserve">
<defs>
</defs>
<rect id="BOUNDING_BOX_1_" fill="none" width="67" height="67"/>
<path opacity="0.3" enable-background="new    " d="M33.5,11.5c-12.702,0-23,10.297-23,23c0,12.702,10.298,23,23,23
	c12.703,0,23-10.298,23-23C56.5,21.797,46.203,11.5,33.5,11.5z M37.039,50.423c0,0.976-0.799,1.771-1.77,1.771h-3.539
	c-0.975,0-1.77-0.795-1.77-1.771V34.5c0-0.971-0.798-1.769-1.77-1.769h-1.769c-0.975,0-1.77-0.795-1.77-1.77
	c0-0.971,0.795-1.769,1.77-1.769h8.846c0.971,0,1.771,0.798,1.771,1.769L37.039,50.423L37.039,50.423z M33.5,25.654
	c-2.439,0-4.423-1.983-4.423-4.423s1.983-4.423,4.423-4.423c2.443,0,4.424,1.983,4.424,4.423
	C37.924,23.67,35.943,25.654,33.5,25.654z"/>
<rect x="16.381" y="21.446" fill="none" width="30" height="30"/>
<path opacity="0.15" enable-background="new    " d="M33.5,57.5c-13.233,0-24-10.768-24-24c0-13.233,10.767-24,24-24
	c13.232,0,24,10.767,24,24C57.5,46.732,46.732,57.5,33.5,57.5z M26.424,29.192c-0.417,0-0.77,0.352-0.77,0.769
	c0,0.424,0.345,0.77,0.77,0.77h1.769c1.527,0,2.77,1.242,2.77,2.769v15.923c0,0.425,0.345,0.771,0.77,0.771h3.539
	c0.416,0,0.77-0.354,0.77-0.771V29.961c0-0.417-0.354-0.769-0.77-0.769H26.424z M33.5,16.808c-1.887,0-3.423,1.536-3.423,3.423
	s1.536,3.423,3.423,3.423c1.889,0,3.424-1.536,3.424-3.423C36.924,18.343,35.389,16.808,33.5,16.808z"/>
<path opacity="0.15" enable-background="new    " d="M33.5,10.5c-12.702,0-23,10.297-23,23c0,12.702,10.298,23,23,23
	c12.703,0,23-10.298,23-23C56.5,20.797,46.203,10.5,33.5,10.5z M37.039,49.423c0,0.976-0.799,1.771-1.77,1.771h-3.539
	c-0.975,0-1.77-0.795-1.77-1.771V33.5c0-0.971-0.798-1.769-1.77-1.769h-1.769c-0.975,0-1.77-0.795-1.77-1.77
	c0-0.971,0.795-1.769,1.77-1.769h8.846c0.971,0,1.771,0.798,1.771,1.769L37.039,49.423L37.039,49.423z M33.5,24.654
	c-2.439,0-4.423-1.983-4.423-4.423s1.983-4.423,4.423-4.423c2.443,0,4.424,1.983,4.424,4.423
	C37.924,22.67,35.943,24.654,33.5,24.654z"/>
<linearGradient id="SVGID_1_" gradientUnits="userSpaceOnUse" x1="33.3394" y1="9.5352" x2="33.3394" y2="55.5356" gradientTransform="matrix(1 0 0 -1 0.1602 66.0352)">
	<stop  offset="0" style="stop-color:#D0CBC5"/>
	<stop  offset="0.5031" style="stop-color:#FAFCEF"/>
	<stop  offset="0.9693" style="stop-color:#FFFFFF"/>
</linearGradient>
<path fill="url(#SVGID_1_)" d="M33.5,10.5c-12.702,0-23,10.297-23,23c0,12.702,10.298,23,23,23c12.703,0,23-10.298,23-23
	C56.5,20.797,46.203,10.5,33.5,10.5z M37.039,49.423c0,0.976-0.799,1.771-1.77,1.771h-3.539c-0.975,0-1.77-0.795-1.77-1.771V33.5
	c0-0.971-0.798-1.769-1.77-1.769h-1.769c-0.975,0-1.77-0.795-1.77-1.77c0-0.971,0.795-1.769,1.77-1.769h8.846
	c0.971,0,1.771,0.798,1.771,1.769L37.039,49.423L37.039,49.423z M33.5,24.654c-2.439,0-4.423-1.983-4.423-4.423
	s1.983-4.423,4.423-4.423c2.443,0,4.424,1.983,4.424,4.423C37.924,22.67,35.943,24.654,33.5,24.654z"/>
<path fill="#FFFFFF" d="M10.513,34c-0.004-0.167-0.013-0.333-0.013-0.5c0-12.703,10.298-23,23-23c12.703,0,23,10.297,23,23
	c0,0.167-0.009,0.333-0.014,0.5C56.221,21.529,46.035,11.5,33.5,11.5S10.779,21.529,10.513,34z M33.5,25.654
	c2.443,0,4.424-1.983,4.424-4.423c0-0.171-0.031-0.334-0.051-0.5c-0.251,2.202-2.102,3.923-4.373,3.923
	c-2.268,0-4.121-1.721-4.372-3.923c-0.019,0.166-0.051,0.329-0.051,0.5C29.077,23.67,31.061,25.654,33.5,25.654z M26.424,32.731
	h1.769c0.972,0,1.77,0.798,1.77,1.769v-1c0-0.971-0.798-1.769-1.77-1.769h-1.769c-0.8,0-1.47-0.539-1.688-1.269
	c-0.047,0.16-0.081,0.325-0.081,0.5C24.654,31.936,25.449,32.731,26.424,32.731z M29.962,50.423c0,0.976,0.795,1.771,1.77,1.771
	h3.538c0.972,0,1.771-0.795,1.771-1.771v-1c0,0.976-0.799,1.771-1.771,1.771h-3.538c-0.975,0-1.77-0.795-1.77-1.771V50.423z"/>
</svg>
